<?xml version="1.0" standalone="no"?>
<!DOCTYPE svg PUBLIC "-//W3C//DTD SVG 20010904//EN"
 "http://www.w3.org/TR/2001/REC-SVG-20010904/DTD/svg10.dtd">
<svg version="1.0" xmlns="http://www.w3.org/2000/svg"
 width="96.000000pt" height="96.000000pt" viewBox="0 0 96.000000 96.000000"
 preserveAspectRatio="xMidYMid meet">
<metadata>
Created by potrace 1.11, written by Peter Selinger 2001-2013
</metadata>
<g transform="translate(0.000000,96.000000) scale(0.100000,-0.100000)"
fill="#000000" stroke="none">
<path d="M112 808 c-17 -17 -17 -519 0 -536 8 -8 45 -12 101 -12 l89 0 -36
-37 c-35 -36 -52 -81 -44 -120 3 -17 19 -18 238 -21 129 -1 246 0 259 3 21 5
23 10 18 51 -4 36 -13 55 -43 85 l-38 39 90 0 c57 0 94 4 102 12 17 17 17 519
0 536 -17 17 -719 17 -736 0z"/>
</g>
</svg>
